# Blender v3.0.0 OBJ File: ''
# www.blender.org
o Cylinder_Cylinder.003
v 0.373681 1.956232 0.013737
v -0.072501 -0.078475 0.018884
v -0.068512 -0.079224 0.009012
v -0.070080 -0.078925 -0.006810
v -0.068538 -0.079217 -0.001673
v -0.084540 -0.076209 0.028971
v -0.072575 -0.078454 -0.011545
v 0.352807 1.960142 0.035271
v -0.075928 -0.077822 -0.015694
v 0.357820 1.959201 0.033710
v -0.075834 -0.077848 0.023034
v -0.070029 -0.078939 0.014149
v 0.374154 1.956147 0.008392
v 0.373596 1.956256 0.003047
v 0.362068 1.958436 -0.014384
v 0.366154 1.957665 -0.010978
v 0.369761 1.956962 0.023615
v 0.372031 1.956554 -0.002092
v -0.068008 -0.079318 0.003669
v 0.362431 1.958335 0.031177
v 0.372198 1.956507 0.018877
v 0.369518 1.957030 -0.006828
v 0.366463 1.957579 0.027768
v -0.089578 -0.075260 0.030529
v -0.079899 -0.077083 0.026440
v -0.080009 -0.077052 -0.019099
v 0.352379 1.960261 -0.018471
v 0.341927 1.962227 -0.018467
v -0.117274 -0.070033 -0.011541
v -0.121263 -0.069284 -0.001669
v -0.109876 -0.071425 -0.019097
v 0.321138 1.966113 0.013757
v -0.089709 -0.075224 -0.023188
v -0.084663 -0.076175 -0.021630
v 0.347149 1.961246 -0.018996
v -0.094954 -0.074235 -0.023713
v 0.328271 1.964790 -0.010964
v 0.336914 1.963169 -0.016906
v -0.105235 -0.072299 -0.021628
v 0.322536 1.965862 -0.002073
v -0.113941 -0.070660 -0.015691
v -0.121767 -0.069190 0.003673
v -0.119746 -0.069568 -0.006806
v -0.119695 -0.069583 0.014153
v 0.320581 1.966222 0.008412
v -0.117200 -0.070054 0.018887
v 0.357416 1.959313 -0.016914
v -0.121237 -0.069291 0.009016
v 0.332303 1.964034 -0.014373
v 0.321052 1.966137 0.003067
v -0.100197 -0.073248 -0.023187
v 0.324973 1.965407 -0.006811
v 0.322703 1.965815 0.018896
v 0.337319 1.963056 0.033718
v -0.113847 -0.070686 0.023037
v 0.325216 1.965339 0.023632
v -0.105112 -0.072333 0.028972
v 0.328581 1.964704 0.027782
v -0.100066 -0.073284 0.030530
v 0.332667 1.963933 0.031188
v -0.109765 -0.071456 0.026442
v 0.342356 1.962108 0.035275
v -0.094821 -0.074273 0.031056
v 0.347586 1.961124 0.035800
vt 0.000000 0.000000
vt 0.000000 0.000000
vt 0.000000 0.000000
vt 0.000000 0.000000
vt 0.000000 0.000000
vt 0.000000 0.000000
vt 0.000000 0.000000
vt 0.000000 0.000000
vt 0.000000 0.000000
vt 0.000000 0.000000
vt 0.000000 0.000000
vt 0.000000 0.000000
vt 0.000000 0.000000
vt 0.000000 0.000000
vt 0.000000 0.000000
vt 0.000000 0.000000
vt 0.000000 0.000000
vt 0.000000 0.000000
vt 0.000000 0.000000
vt 0.000000 0.000000
vt 0.000000 0.000000
vt 0.000000 0.000000
vt 0.000000 0.000000
vt 0.000000 0.000000
vt 0.000000 0.000000
vt 0.000000 0.000000
vt 0.000000 0.000000
vt 0.000000 0.000000
vt 0.000000 0.000000
vt 0.000000 0.000000
vt 0.000000 0.000000
vt 0.000000 0.000000
vt 0.000000 0.000000
vt 0.000000 0.000000
vt 0.000000 0.000000
vt 0.000000 0.000000
vt 0.000000 0.000000
vt 0.000000 0.000000
vt 0.000000 0.000000
vt 0.000000 0.000000
vt 0.000000 0.000000
vt 0.000000 0.000000
vt 0.000000 0.000000
vt 0.000000 0.000000
vt 0.000000 0.000000
vt 0.000000 0.000000
vt 0.000000 0.000000
vt 0.000000 0.000000
vt 0.000000 0.000000
vt 0.000000 0.000000
vt 0.000000 0.000000
vt 0.000000 0.000000
vt 0.000000 0.000000
vt 0.000000 0.000000
vt 0.000000 0.000000
vt 0.000000 0.000000
vt 0.000000 0.000000
vt 0.000000 0.000000
vt 0.000000 0.000000
vt 0.000000 0.000000
vt 0.000000 0.000000
vt 0.000000 0.000000
vt 0.000000 0.000000
vt 0.000000 0.000000
vn 0.1848 0.9828 0.0007
vn 0.1847 0.9828 0.0007
vn 0.1849 0.9828 0.0007
vn 0.1849 0.9828 0.0010
vn -0.1851 -0.9827 -0.0002
vn 0.1847 0.9828 0.0010
vn 0.1846 0.9828 0.0007
vn 0.1848 0.9828 0.0008
vn 0.1847 0.9828 0.0008
vn 0.1848 0.9828 0.0010
vn 0.1848 0.9828 0.0003
vn 0.2839 -0.0639 0.9567
vn 0.1849 0.9828 0.0017
vn 0.1854 0.9827 0.0002
vn 0.1849 0.9828 0.0006
vn 0.1849 0.9828 0.0013
vn 0.0956 -0.0231 0.9952
vn 0.1850 0.9827 0.0007
vn 0.1851 0.9827 0.0010
vn 0.1848 0.9828 0.0013
vn 0.7565 -0.1659 0.6326
vn -0.0956 0.0231 -0.9952
vn 0.9347 -0.2024 -0.2921
vn 0.4614 -0.1023 0.8813
vn 0.6201 -0.1329 -0.7732
vn -0.8614 0.1861 0.4726
vn -0.9723 0.2111 0.1003
vn 0.2842 -0.0595 -0.9569
vn 0.4611 -0.0981 -0.8819
vn -0.1852 -0.9827 -0.0002
vn -0.7552 0.1627 0.6350
vn -0.2839 0.0639 -0.9567
vn 0.9358 -0.2040 0.2876
vn 0.8614 -0.1860 -0.4726
vn 0.0963 -0.0186 -0.9952
vn -0.7565 0.1658 -0.6326
vn -0.9358 0.2040 -0.2877
vn 0.7552 -0.1626 -0.6350
vn -0.8628 0.1886 -0.4691
vn 0.6210 -0.1367 0.7718
vn 0.8628 -0.1886 0.4691
vn 0.9727 -0.2115 0.0954
vn -0.9347 0.2025 0.2921
vn -0.6200 0.1330 0.7732
vn 0.9723 -0.2110 -0.1004
vn -0.4614 0.1023 -0.8813
vn -0.6210 0.1367 -0.7718
vn -0.9727 0.2116 -0.0954
vn -0.2842 0.0595 0.9569
vn 0.9376 -0.2043 0.2815
vn 0.8657 -0.1892 0.4635
vn 0.6243 -0.1375 0.7690
vn 0.0963 -0.0233 0.9951
vn 0.9336 -0.2021 -0.2960
vn -0.2857 0.0643 -0.9562
vn 0.7600 -0.1666 0.6283
vn 0.6197 -0.1328 -0.7736
vn 0.9718 -0.2109 -0.1056
vn -0.0963 0.0186 0.9952
vn -0.0963 0.0232 -0.9951
vn 0.9733 -0.2116 0.0894
vn 0.4612 -0.0981 -0.8819
vn 0.4641 -0.1029 0.8798
vn -0.4641 0.1029 -0.8798
vn 0.8601 -0.1857 -0.4751
vn 0.2857 -0.0643 0.9562
vn 0.7543 -0.1623 -0.6362
vn 0.2846 -0.0596 -0.9568
vn -0.4611 0.0982 0.8819
vn -0.9375 0.2044 -0.2815
vn -0.9732 0.2117 -0.0893
vn -0.7599 0.1666 -0.6283
vn -0.6243 0.1374 -0.7690
vn -0.8656 0.1892 -0.4635
vn -0.9718 0.2110 0.1056
vn -0.9335 0.2022 0.2961
vn -0.8601 0.1858 0.4751
vn -0.7542 0.1624 0.6363
vn -0.6196 0.1329 0.7736
vn -0.4612 0.0982 0.8819
vn -0.2846 0.0596 0.9568
s off
f 14/1/1 8/2/1 17/3/1
f 14/1/2 17/3/2 1/4/2
f 1/4/3 17/3/3 21/5/3
f 52/6/4 49/7/4 37/8/4
f 28/9/1 14/1/1 15/10/1
f 62/11/1 60/12/1 54/13/1
f 43/14/5 57/15/5 44/16/5
f 28/9/1 15/10/1 27/17/1
f 44/16/5 57/15/5 55/18/5
f 27/17/6 15/10/6 47/19/6
f 50/20/7 52/6/7 40/21/7
f 8/2/8 60/12/8 62/11/8
f 56/22/9 32/23/9 53/24/9
f 43/14/5 44/16/5 42/25/5
f 8/2/1 32/23/1 60/12/1
f 60/12/10 56/22/10 58/26/10
f 28/9/11 27/17/11 35/27/11
f 10/28/12 24/29/12 6/30/12
f 32/23/3 52/6/3 50/20/3
f 20/31/13 8/2/13 10/28/13
f 32/23/1 28/9/1 52/6/1
f 15/10/14 22/32/14 16/33/14
f 60/12/15 32/23/15 56/22/15
f 57/15/5 34/34/5 12/35/5
f 57/15/5 12/35/5 6/30/5
f 49/7/16 28/9/16 38/36/16
f 39/37/5 43/14/5 41/38/5
f 52/6/8 28/9/8 49/7/8
f 17/3/1 8/2/1 20/31/1
f 34/34/5 43/14/5 39/37/5
f 8/2/17 63/39/17 24/29/17
f 8/2/1 28/9/1 32/23/1
f 22/32/3 14/1/3 18/40/3
f 14/1/18 1/4/18 13/41/18
f 17/3/19 20/31/19 23/42/19
f 32/23/3 50/20/3 45/43/3
f 15/10/9 14/1/9 22/32/9
f 12/35/5 34/34/5 4/44/5
f 8/2/20 62/11/20 64/45/20
f 6/30/5 11/46/5 25/47/5
f 2/48/21 23/42/21 11/46/21
f 55/18/5 57/15/5 61/49/5
f 28/9/22 36/50/22 51/51/22
f 44/16/5 55/18/5 46/52/5
f 57/15/5 6/30/5 63/39/5
f 18/40/23 5/53/23 4/44/23
f 19/54/5 4/44/5 5/53/5
f 12/35/5 4/44/5 19/54/5
f 25/47/24 10/28/24 6/30/24
f 4/44/5 34/34/5 9/55/5
f 26/56/25 16/33/25 9/55/25
f 56/22/26 44/16/26 46/52/26
f 48/57/27 45/43/27 42/25/27
f 9/55/5 34/34/5 26/56/5
f 33/58/28 47/19/28 34/34/28
f 36/50/5 39/37/5 51/51/5
f 34/34/29 15/10/29 26/56/29
f 43/14/30 42/25/30 30/59/30
f 4/44/5 9/55/5 7/60/5
f 11/46/5 12/35/5 2/48/5
f 58/26/31 46/52/31 55/18/31
f 38/36/32 51/51/32 39/37/32
f 1/4/33 12/35/33 3/61/33
f 34/34/5 39/37/5 36/50/5
f 57/15/5 63/39/5 59/62/5
f 6/30/5 12/35/5 11/46/5
f 22/32/34 4/44/34 7/60/34
f 35/27/35 33/58/35 36/50/35
f 39/37/5 41/38/5 31/63/5
f 52/6/36 41/38/36 29/64/36
f 30/59/37 40/21/37 43/14/37
f 9/55/38 22/32/38 7/60/38
f 43/14/39 52/6/39 29/64/39
f 23/42/40 25/47/40 11/46/40
f 12/35/41 17/3/41 2/48/41
f 13/41/42 3/61/42 19/54/42
f 42/25/30 44/16/30 48/57/30
f 12/35/5 19/54/5 3/61/5
f 34/34/5 36/50/5 33/58/5
f 44/16/43 32/23/43 48/57/43
f 41/38/5 43/14/5 29/64/5
f 61/49/44 58/26/44 55/18/44
f 14/1/45 19/54/45 5/53/45
f 31/63/46 38/36/46 39/37/46
f 37/8/47 31/63/47 41/38/47
f 63/39/5 6/30/5 24/29/5
f 42/25/48 50/20/48 30/59/48
f 59/62/49 54/13/49 57/15/49
f 34/34/5 57/15/5 43/14/5
f 1/4/50 21/5/50 12/35/50
f 12/35/51 21/5/51 17/3/51
f 23/42/52 20/31/52 25/47/52
f 35/27/35 27/17/35 33/58/35
f 8/2/53 64/45/53 63/39/53
f 28/9/1 8/2/1 14/1/1
f 18/40/54 14/1/54 5/53/54
f 38/36/55 28/9/55 51/51/55
f 2/48/56 17/3/56 23/42/56
f 26/56/57 15/10/57 16/33/57
f 14/1/58 13/41/58 19/54/58
f 64/45/59 59/62/59 63/39/59
f 28/9/60 35/27/60 36/50/60
f 13/41/61 1/4/61 3/61/61
f 34/34/62 47/19/62 15/10/62
f 25/47/63 20/31/63 10/28/63
f 31/63/64 49/7/64 38/36/64
f 22/32/65 18/40/65 4/44/65
f 10/28/66 8/2/66 24/29/66
f 9/55/67 16/33/67 22/32/67
f 33/58/68 27/17/68 47/19/68
f 57/15/69 60/12/69 61/49/69
f 30/59/70 50/20/70 40/21/70
f 42/25/71 45/43/71 50/20/71
f 52/6/72 37/8/72 41/38/72
f 37/8/73 49/7/73 31/63/73
f 43/14/74 40/21/74 52/6/74
f 48/57/75 32/23/75 45/43/75
f 44/16/76 53/24/76 32/23/76
f 56/22/77 53/24/77 44/16/77
f 58/26/78 56/22/78 46/52/78
f 61/49/79 60/12/79 58/26/79
f 57/15/80 54/13/80 60/12/80
f 59/62/81 62/11/81 54/13/81
f 64/45/59 62/11/59 59/62/59
