# Blender v3.0.0 OBJ File: ''
# www.blender.org
o Cube.001_Cube.004
v -5.001561 2.502064 0.103615
v -5.001561 -2.502064 -0.103615
v -5.001561 -2.502064 0.103615
v -5.001561 2.502064 -0.103615
v 5.001561 -2.502064 -0.103615
v 5.001561 2.502064 -0.103615
v 5.001561 -2.502064 0.103615
v 5.001561 2.502064 0.103615
v -5.080030 -2.264693 0.286199
v -5.080030 -1.840554 0.216455
v -5.080030 -2.264693 -0.312024
v -5.080030 -1.840554 -0.215380
v 5.197626 -2.264693 0.286199
v 5.197626 -1.840554 0.216455
v 5.197626 -2.264693 -0.312024
v 5.197626 -1.840554 -0.215380
v -5.080030 -1.930595 0.286199
v -5.080030 -1.930595 -0.312024
v 5.197626 -1.930595 -0.312024
v 5.197626 -1.930595 0.286199
vt 0.848726 0.028425
vt 0.834026 0.038217
vt 0.831193 0.028425
vt 0.761529 0.300261
vt 0.771621 -0.000949
vt 0.771621 0.300261
vt 0.834026 -0.000949
vt 0.848726 0.008842
vt 0.831193 0.008842
vt 0.801005 -0.000949
vt 0.791056 0.300261
vt 0.791056 -0.000949
vt 0.818538 0.300261
vt 0.801005 -0.000949
vt 0.818538 -0.000949
vt 0.831193 0.300261
vt 0.818538 -0.000949
vt 0.831193 -0.000949
vt 0.781316 0.300261
vt 0.781316 -0.000949
vt 0.831193 0.018634
vt 0.848726 0.018634
vt 0.781316 -0.000949
vt 0.781316 0.300261
vt 0.831193 0.018634
vt 0.848726 0.018634
vt 0.846682 0.038217
vt 0.761529 -0.000949
vt 0.846682 -0.000949
vt 0.801005 0.300261
vt 0.801005 0.300261
vt 0.818538 0.300261
vt 0.580548 0.933788
vt 0.323095 0.643740
vt 0.580548 0.393431
vt 1.000000 0.303141
vt 0.696859 0.000000
vt 1.000000 0.000000
vt 0.314366 0.699356
vt 0.017099 0.383592
vt 0.284336 0.667943
vt 0.387595 0.303218
vt 0.690736 0.000077
vt 0.690736 0.303218
vt 0.352334 0.684479
vt 0.061698 0.952506
vt 0.696859 0.303141
vt 0.387595 0.000077
vn -1.0000 -0.0000 0.0000
vn 0.0000 0.7317 -0.6817
vn 1.0000 -0.0000 0.0000
vn 0.0000 0.6124 0.7906
vn 0.0000 -1.0000 0.0000
vn 0.0000 1.0000 0.0000
vn 0.0000 0.0000 1.0000
vn 0.0000 -0.0000 -1.0000
s off
f 17/1/1 12/2/1 18/3/1
f 12/4/2 19/5/2 18/6/2
f 16/7/3 20/8/3 19/9/3
f 14/10/4 17/11/4 20/12/4
f 15/13/5 9/14/5 11/15/5
f 12/16/6 14/17/6 16/18/6
f 20/12/7 9/19/7 13/20/7
f 15/21/3 20/8/3 13/22/3
f 18/6/8 15/23/8 11/24/8
f 17/1/1 11/25/1 9/26/1
f 17/1/1 10/27/1 12/2/1
f 12/4/2 16/28/2 19/5/2
f 16/7/3 14/29/3 20/8/3
f 14/10/4 10/30/4 17/11/4
f 15/13/5 13/31/5 9/14/5
f 12/16/6 10/32/6 14/17/6
f 20/12/7 17/11/7 9/19/7
f 15/21/3 19/9/3 20/8/3
f 18/6/8 19/5/8 15/23/8
f 17/1/1 18/3/1 11/25/1
s 1
f 1/33/1 2/34/1 3/35/1
f 4/36/8 5/37/8 2/38/8
f 6/39/3 7/40/3 5/41/3
f 8/42/7 3/43/7 7/44/7
f 5/41/5 3/35/5 2/34/5
f 4/45/6 8/46/6 6/39/6
f 1/33/1 4/45/1 2/34/1
f 4/36/8 6/47/8 5/37/8
f 6/39/3 8/46/3 7/40/3
f 8/42/7 1/48/7 3/43/7
f 5/41/5 7/40/5 3/35/5
f 4/45/6 1/33/6 8/46/6
